<mxfile host="app.diagrams.net" modified="2021-07-22T19:42:03.343Z" agent="5.0 (Macintosh; Intel Mac OS X 10_15_7) AppleWebKit/605.1.15 (KHTML, like Gecko) Version/13.1.3 Safari/605.1.15" etag="bEyuYk9iaUWLmNbcWrBw" version="14.9.0" type="github">
  <diagram id="ZkYAFQrB4FQ_Co6BY5Ft" name="Page-1">
    <mxGraphModel dx="3054" dy="2427" grid="1" gridSize="10" guides="1" tooltips="1" connect="1" arrows="1" fold="1" page="0" pageScale="1" pageWidth="827" pageHeight="1169" math="0" shadow="0">
      <root>
        <mxCell id="0" />
        <mxCell id="1" parent="0" />
        <mxCell id="LpJt9IebrQdKaDS4yMnM-16" value="" style="whiteSpace=wrap;html=1;fillColor=none;" parent="1" vertex="1">
          <mxGeometry x="-720" y="-370" width="360" height="360" as="geometry" />
        </mxCell>
        <mxCell id="LpJt9IebrQdKaDS4yMnM-1" value="" style="whiteSpace=wrap;html=1;fillColor=none;" parent="1" vertex="1">
          <mxGeometry x="-720" y="-760" width="360" height="360" as="geometry" />
        </mxCell>
        <mxCell id="LpJt9IebrQdKaDS4yMnM-3" value="" style="rounded=0;whiteSpace=wrap;html=1;fillColor=#e3c800;strokeColor=#B09500;fontColor=#ffffff;" parent="1" vertex="1">
          <mxGeometry x="-360" y="-760" width="200" height="360" as="geometry" />
        </mxCell>
        <mxCell id="LpJt9IebrQdKaDS4yMnM-6" value="" style="rounded=0;whiteSpace=wrap;html=1;fillColor=#a20025;strokeColor=#6F0000;fontColor=#ffffff;" parent="1" vertex="1">
          <mxGeometry x="-600" y="-470" width="240" height="70" as="geometry" />
        </mxCell>
        <mxCell id="LpJt9IebrQdKaDS4yMnM-12" value="" style="group;dashed=1;strokeWidth=2;" parent="1" vertex="1" connectable="0">
          <mxGeometry x="-640" y="-760" width="200" height="240" as="geometry" />
        </mxCell>
        <mxCell id="LpJt9IebrQdKaDS4yMnM-9" value="5*3" style="rounded=0;whiteSpace=wrap;html=1;" parent="LpJt9IebrQdKaDS4yMnM-12" vertex="1">
          <mxGeometry width="200" height="120" as="geometry" />
        </mxCell>
        <mxCell id="LpJt9IebrQdKaDS4yMnM-10" value="" style="rounded=0;whiteSpace=wrap;html=1;fillColor=none;dashed=1;strokeWidth=2;" parent="LpJt9IebrQdKaDS4yMnM-12" vertex="1">
          <mxGeometry y="120" width="200" height="120" as="geometry" />
        </mxCell>
        <mxCell id="LpJt9IebrQdKaDS4yMnM-146" value="" style="rounded=0;whiteSpace=wrap;html=1;fillColor=#dae8fc;strokeColor=#6c8ebf;rotation=-90;" parent="LpJt9IebrQdKaDS4yMnM-12" vertex="1">
          <mxGeometry x="30" y="5" width="40" height="60" as="geometry" />
        </mxCell>
        <mxCell id="LpJt9IebrQdKaDS4yMnM-147" value="" style="rounded=0;whiteSpace=wrap;html=1;fillColor=#dae8fc;strokeColor=#6c8ebf;rotation=-90;" parent="LpJt9IebrQdKaDS4yMnM-12" vertex="1">
          <mxGeometry x="130" y="5" width="40" height="60" as="geometry" />
        </mxCell>
        <mxCell id="LpJt9IebrQdKaDS4yMnM-18" value="" style="rounded=0;whiteSpace=wrap;html=1;fillColor=#e3c800;strokeColor=#B09500;fontColor=#ffffff;" parent="1" vertex="1">
          <mxGeometry x="-360" y="-370" width="200" height="360" as="geometry" />
        </mxCell>
        <mxCell id="LpJt9IebrQdKaDS4yMnM-20" value="" style="rounded=0;whiteSpace=wrap;html=1;fillColor=#a20025;strokeColor=#6F0000;fontColor=#ffffff;" parent="1" vertex="1">
          <mxGeometry x="-600" y="-80" width="240" height="70" as="geometry" />
        </mxCell>
        <mxCell id="LpJt9IebrQdKaDS4yMnM-32" value="" style="whiteSpace=wrap;html=1;fillColor=none;" parent="1" vertex="1">
          <mxGeometry x="-720" y="-1160" width="360" height="360" as="geometry" />
        </mxCell>
        <mxCell id="LpJt9IebrQdKaDS4yMnM-34" value="" style="rounded=0;whiteSpace=wrap;html=1;fillColor=#e3c800;strokeColor=#B09500;fontColor=#ffffff;" parent="1" vertex="1">
          <mxGeometry x="-360" y="-1160" width="200" height="360" as="geometry" />
        </mxCell>
        <mxCell id="LpJt9IebrQdKaDS4yMnM-36" value="" style="rounded=0;whiteSpace=wrap;html=1;fillColor=#a20025;strokeColor=#6F0000;fontColor=#ffffff;" parent="1" vertex="1">
          <mxGeometry x="-600" y="-870" width="240" height="70" as="geometry" />
        </mxCell>
        <mxCell id="LpJt9IebrQdKaDS4yMnM-37" value="" style="group;rotation=-90;" parent="1" vertex="1" connectable="0">
          <mxGeometry x="-700" y="-1180" width="200" height="240" as="geometry" />
        </mxCell>
        <mxCell id="LpJt9IebrQdKaDS4yMnM-40" value="" style="group;rotation=-90;" parent="LpJt9IebrQdKaDS4yMnM-37" vertex="1" connectable="0">
          <mxGeometry width="200" height="240" as="geometry" />
        </mxCell>
        <mxCell id="LpJt9IebrQdKaDS4yMnM-38" value="5*3" style="rounded=0;whiteSpace=wrap;html=1;direction=west;rotation=-90;" parent="LpJt9IebrQdKaDS4yMnM-40" vertex="1">
          <mxGeometry x="-60" y="60" width="200" height="120" as="geometry" />
        </mxCell>
        <mxCell id="LpJt9IebrQdKaDS4yMnM-39" value="" style="rounded=0;whiteSpace=wrap;html=1;direction=west;rotation=-90;fillColor=none;dashed=1;strokeWidth=2;" parent="LpJt9IebrQdKaDS4yMnM-40" vertex="1">
          <mxGeometry x="60" y="60" width="200" height="120" as="geometry" />
        </mxCell>
        <mxCell id="LpJt9IebrQdKaDS4yMnM-143" value="" style="rounded=0;whiteSpace=wrap;html=1;fillColor=#dae8fc;strokeColor=#6c8ebf;" parent="LpJt9IebrQdKaDS4yMnM-40" vertex="1">
          <mxGeometry y="40" width="40" height="60" as="geometry" />
        </mxCell>
        <mxCell id="LpJt9IebrQdKaDS4yMnM-145" value="" style="rounded=0;whiteSpace=wrap;html=1;fillColor=#dae8fc;strokeColor=#6c8ebf;rotation=-180;" parent="LpJt9IebrQdKaDS4yMnM-40" vertex="1">
          <mxGeometry y="140" width="40" height="60" as="geometry" />
        </mxCell>
        <mxCell id="LpJt9IebrQdKaDS4yMnM-14" value="6*2.5" style="rounded=0;whiteSpace=wrap;html=1;" parent="1" vertex="1">
          <mxGeometry x="-720" y="-370" width="240" height="100" as="geometry" />
        </mxCell>
        <mxCell id="LpJt9IebrQdKaDS4yMnM-15" value="" style="rounded=0;whiteSpace=wrap;html=1;fillColor=none;dashed=1;strokeWidth=2;" parent="1" vertex="1">
          <mxGeometry x="-720" y="-270" width="240" height="100" as="geometry" />
        </mxCell>
        <mxCell id="LpJt9IebrQdKaDS4yMnM-49" value="" style="rounded=0;whiteSpace=wrap;html=1;fillColor=#dae8fc;strokeColor=#6c8ebf;" parent="1" vertex="1">
          <mxGeometry x="-540" y="-350" width="40" height="60" as="geometry" />
        </mxCell>
        <mxCell id="LpJt9IebrQdKaDS4yMnM-50" value="" style="rounded=0;whiteSpace=wrap;html=1;fillColor=#dae8fc;strokeColor=#6c8ebf;" parent="1" vertex="1">
          <mxGeometry x="-540" y="-250" width="40" height="60" as="geometry" />
        </mxCell>
        <mxCell id="LpJt9IebrQdKaDS4yMnM-88" value="" style="whiteSpace=wrap;html=1;fillColor=none;" parent="1" vertex="1">
          <mxGeometry x="-639" y="1200" width="376" height="393" as="geometry" />
        </mxCell>
        <mxCell id="LpJt9IebrQdKaDS4yMnM-90" value="" style="rounded=0;whiteSpace=wrap;html=1;fillColor=#e3c800;strokeColor=#B09500;fontColor=#ffffff;" parent="1" vertex="1">
          <mxGeometry x="-719" y="1200" width="80" height="393" as="geometry" />
        </mxCell>
        <mxCell id="LpJt9IebrQdKaDS4yMnM-91" value="" style="rounded=0;whiteSpace=wrap;html=1;fillColor=#a20025;strokeColor=#6F0000;fontColor=#ffffff;" parent="1" vertex="1">
          <mxGeometry x="-639" y="1200" width="376" height="67" as="geometry" />
        </mxCell>
        <mxCell id="LpJt9IebrQdKaDS4yMnM-97" value="" style="rounded=0;whiteSpace=wrap;html=1;fillColor=#a20025;strokeColor=#6F0000;fontColor=#ffffff;" parent="1" vertex="1">
          <mxGeometry x="-328" y="1553" width="64" height="40" as="geometry" />
        </mxCell>
        <mxCell id="LpJt9IebrQdKaDS4yMnM-98" value="" style="group;rotation=-180;" parent="1" vertex="1" connectable="0">
          <mxGeometry x="-528" y="1352" width="200" height="240" as="geometry" />
        </mxCell>
        <mxCell id="LpJt9IebrQdKaDS4yMnM-99" value="" style="group;rotation=-180;fillColor=none;dashed=1;strokeWidth=2;" parent="LpJt9IebrQdKaDS4yMnM-98" vertex="1" connectable="0">
          <mxGeometry width="200" height="240" as="geometry" />
        </mxCell>
        <mxCell id="LpJt9IebrQdKaDS4yMnM-100" value="5*3" style="rounded=0;whiteSpace=wrap;html=1;direction=west;rotation=-180;" parent="LpJt9IebrQdKaDS4yMnM-99" vertex="1">
          <mxGeometry y="120" width="200" height="120" as="geometry" />
        </mxCell>
        <mxCell id="LpJt9IebrQdKaDS4yMnM-101" value="" style="rounded=0;whiteSpace=wrap;html=1;direction=west;rotation=-180;fillColor=none;dashed=1;strokeWidth=2;" parent="LpJt9IebrQdKaDS4yMnM-99" vertex="1">
          <mxGeometry width="200" height="120" as="geometry" />
        </mxCell>
        <mxCell id="LpJt9IebrQdKaDS4yMnM-171" value="" style="rounded=0;whiteSpace=wrap;html=1;fillColor=#dae8fc;strokeColor=#6c8ebf;rotation=-90;" parent="LpJt9IebrQdKaDS4yMnM-99" vertex="1">
          <mxGeometry x="28" y="180" width="40" height="60" as="geometry" />
        </mxCell>
        <mxCell id="LpJt9IebrQdKaDS4yMnM-172" value="" style="rounded=0;whiteSpace=wrap;html=1;fillColor=#dae8fc;strokeColor=#6c8ebf;rotation=-90;" parent="LpJt9IebrQdKaDS4yMnM-99" vertex="1">
          <mxGeometry x="128" y="180" width="40" height="60" as="geometry" />
        </mxCell>
        <mxCell id="LpJt9IebrQdKaDS4yMnM-107" value="" style="whiteSpace=wrap;html=1;fillColor=none;" parent="1" vertex="1">
          <mxGeometry x="-640" y="1646" width="376" height="393" as="geometry" />
        </mxCell>
        <mxCell id="LpJt9IebrQdKaDS4yMnM-109" value="" style="rounded=0;whiteSpace=wrap;html=1;fillColor=#e3c800;strokeColor=#B09500;fontColor=#ffffff;" parent="1" vertex="1">
          <mxGeometry x="-720" y="1646" width="80" height="393" as="geometry" />
        </mxCell>
        <mxCell id="LpJt9IebrQdKaDS4yMnM-110" value="" style="rounded=0;whiteSpace=wrap;html=1;fillColor=#a20025;strokeColor=#6F0000;fontColor=#ffffff;" parent="1" vertex="1">
          <mxGeometry x="-640" y="1646" width="376" height="67" as="geometry" />
        </mxCell>
        <mxCell id="LpJt9IebrQdKaDS4yMnM-117" value="" style="group;rotation=-180;" parent="1" vertex="1" connectable="0">
          <mxGeometry x="-520" y="1799" width="200" height="240" as="geometry" />
        </mxCell>
        <mxCell id="LpJt9IebrQdKaDS4yMnM-118" value="" style="group;rotation=-180;fillColor=none;" parent="LpJt9IebrQdKaDS4yMnM-117" vertex="1" connectable="0">
          <mxGeometry x="-20" y="-3" width="200" height="240" as="geometry" />
        </mxCell>
        <mxCell id="LpJt9IebrQdKaDS4yMnM-119" value="" style="rounded=0;whiteSpace=wrap;html=1;direction=west;rotation=-180;" parent="LpJt9IebrQdKaDS4yMnM-118" vertex="1">
          <mxGeometry x="1" y="123" width="220" height="120" as="geometry" />
        </mxCell>
        <mxCell id="LpJt9IebrQdKaDS4yMnM-120" value="" style="rounded=0;whiteSpace=wrap;html=1;direction=west;rotation=-180;fillColor=none;dashed=1;strokeWidth=2;" parent="LpJt9IebrQdKaDS4yMnM-118" vertex="1">
          <mxGeometry x="1" y="3" width="220" height="120" as="geometry" />
        </mxCell>
        <mxCell id="LpJt9IebrQdKaDS4yMnM-121" value="" style="rounded=0;whiteSpace=wrap;html=1;fillColor=#dae8fc;strokeColor=#6c8ebf;" parent="LpJt9IebrQdKaDS4yMnM-118" vertex="1">
          <mxGeometry x="20" y="150" width="40" height="60" as="geometry" />
        </mxCell>
        <mxCell id="LpJt9IebrQdKaDS4yMnM-122" value="" style="rounded=0;whiteSpace=wrap;html=1;fillColor=#dae8fc;strokeColor=#6c8ebf;" parent="LpJt9IebrQdKaDS4yMnM-118" vertex="1">
          <mxGeometry x="20" y="33" width="40" height="60" as="geometry" />
        </mxCell>
        <mxCell id="szGgx06OWhjKix8JStCV-1" value="&lt;b&gt;5&#39;6*3&lt;/b&gt;" style="text;html=1;strokeColor=none;fillColor=none;align=center;verticalAlign=middle;whiteSpace=wrap;rounded=0;dashed=1;" parent="LpJt9IebrQdKaDS4yMnM-118" vertex="1">
          <mxGeometry x="90" y="170" width="40" height="20" as="geometry" />
        </mxCell>
        <mxCell id="LpJt9IebrQdKaDS4yMnM-124" value="" style="rounded=0;whiteSpace=wrap;html=1;fillColor=#dae8fc;rotation=90;strokeColor=#6c8ebf;" parent="1" vertex="1">
          <mxGeometry x="-390" y="1966" width="40" height="60" as="geometry" />
        </mxCell>
        <mxCell id="LpJt9IebrQdKaDS4yMnM-132" value="" style="rounded=0;whiteSpace=wrap;html=1;fillColor=#a20025;strokeColor=#6F0000;fontColor=#ffffff;" parent="1" vertex="1">
          <mxGeometry x="-319" y="1999" width="55" height="40" as="geometry" />
        </mxCell>
        <mxCell id="LpJt9IebrQdKaDS4yMnM-139" value="" style="group" parent="1" vertex="1" connectable="0">
          <mxGeometry x="-720" y="-900" width="100" height="100" as="geometry" />
        </mxCell>
        <mxCell id="LpJt9IebrQdKaDS4yMnM-33" value="" style="rounded=0;whiteSpace=wrap;html=1;" parent="LpJt9IebrQdKaDS4yMnM-139" vertex="1">
          <mxGeometry width="100" height="100" as="geometry" />
        </mxCell>
        <mxCell id="LpJt9IebrQdKaDS4yMnM-135" value="" style="curved=1;endArrow=classic;html=1;entryX=0;entryY=0;entryDx=0;entryDy=0;exitX=1;exitY=1;exitDx=0;exitDy=0;" parent="LpJt9IebrQdKaDS4yMnM-139" source="LpJt9IebrQdKaDS4yMnM-33" target="LpJt9IebrQdKaDS4yMnM-33" edge="1">
          <mxGeometry width="50" height="50" relative="1" as="geometry">
            <mxPoint x="40" y="80" as="sourcePoint" />
            <mxPoint x="90" y="30" as="targetPoint" />
            <Array as="points">
              <mxPoint x="90" y="50" />
              <mxPoint x="40" y="10" />
            </Array>
          </mxGeometry>
        </mxCell>
        <mxCell id="LpJt9IebrQdKaDS4yMnM-140" value="" style="group" parent="1" vertex="1" connectable="0">
          <mxGeometry x="-720" y="-500" width="100" height="100" as="geometry" />
        </mxCell>
        <mxCell id="LpJt9IebrQdKaDS4yMnM-141" value="" style="rounded=0;whiteSpace=wrap;html=1;" parent="LpJt9IebrQdKaDS4yMnM-140" vertex="1">
          <mxGeometry width="100" height="100" as="geometry" />
        </mxCell>
        <mxCell id="LpJt9IebrQdKaDS4yMnM-142" value="" style="curved=1;endArrow=classic;html=1;entryX=0;entryY=0;entryDx=0;entryDy=0;exitX=1;exitY=1;exitDx=0;exitDy=0;" parent="LpJt9IebrQdKaDS4yMnM-140" source="LpJt9IebrQdKaDS4yMnM-141" target="LpJt9IebrQdKaDS4yMnM-141" edge="1">
          <mxGeometry width="50" height="50" relative="1" as="geometry">
            <mxPoint x="40" y="80" as="sourcePoint" />
            <mxPoint x="90" y="30" as="targetPoint" />
            <Array as="points">
              <mxPoint x="90" y="50" />
              <mxPoint x="40" y="10" />
            </Array>
          </mxGeometry>
        </mxCell>
        <mxCell id="LpJt9IebrQdKaDS4yMnM-148" value="" style="group" parent="1" vertex="1" connectable="0">
          <mxGeometry x="-720" y="-110" width="100" height="100" as="geometry" />
        </mxCell>
        <mxCell id="LpJt9IebrQdKaDS4yMnM-149" value="" style="rounded=0;whiteSpace=wrap;html=1;" parent="LpJt9IebrQdKaDS4yMnM-148" vertex="1">
          <mxGeometry width="100" height="100" as="geometry" />
        </mxCell>
        <mxCell id="LpJt9IebrQdKaDS4yMnM-150" value="" style="curved=1;endArrow=classic;html=1;entryX=0;entryY=0;entryDx=0;entryDy=0;exitX=1;exitY=1;exitDx=0;exitDy=0;" parent="LpJt9IebrQdKaDS4yMnM-148" source="LpJt9IebrQdKaDS4yMnM-149" target="LpJt9IebrQdKaDS4yMnM-149" edge="1">
          <mxGeometry width="50" height="50" relative="1" as="geometry">
            <mxPoint x="40" y="80" as="sourcePoint" />
            <mxPoint x="90" y="30" as="targetPoint" />
            <Array as="points">
              <mxPoint x="90" y="50" />
              <mxPoint x="40" y="10" />
            </Array>
          </mxGeometry>
        </mxCell>
        <mxCell id="LpJt9IebrQdKaDS4yMnM-154" value="" style="group;rotation=0;" parent="1" vertex="1" connectable="0">
          <mxGeometry x="-722" y="79.99999999999999" width="401" height="480" as="geometry" />
        </mxCell>
        <mxCell id="LpJt9IebrQdKaDS4yMnM-52" value="" style="whiteSpace=wrap;html=1;fillColor=none;rotation=0;" parent="LpJt9IebrQdKaDS4yMnM-154" vertex="1">
          <mxGeometry x="2" y="80" width="400" height="400" as="geometry" />
        </mxCell>
        <mxCell id="LpJt9IebrQdKaDS4yMnM-54" value="" style="rounded=0;whiteSpace=wrap;html=1;fillColor=#e3c800;strokeColor=#B09500;fontColor=#ffffff;rotation=-90;" parent="LpJt9IebrQdKaDS4yMnM-154" vertex="1">
          <mxGeometry x="162" y="-160" width="80" height="400" as="geometry" />
        </mxCell>
        <mxCell id="LpJt9IebrQdKaDS4yMnM-56" value="" style="rounded=0;whiteSpace=wrap;html=1;fillColor=#a20025;strokeColor=#6F0000;fontColor=#ffffff;rotation=0;" parent="LpJt9IebrQdKaDS4yMnM-154" vertex="1">
          <mxGeometry x="122" y="410" width="280" height="70" as="geometry" />
        </mxCell>
        <mxCell id="LpJt9IebrQdKaDS4yMnM-62" value="" style="rounded=0;whiteSpace=wrap;html=1;fillColor=#a20025;strokeColor=#6F0000;fontColor=#ffffff;rotation=0;" parent="LpJt9IebrQdKaDS4yMnM-154" vertex="1">
          <mxGeometry x="2" y="80" width="80" height="110" as="geometry" />
        </mxCell>
        <mxCell id="LpJt9IebrQdKaDS4yMnM-57" value="6*2.5" style="rounded=0;whiteSpace=wrap;html=1;rotation=-90;fillColor=none;dashed=1;strokeWidth=2;" parent="LpJt9IebrQdKaDS4yMnM-154" vertex="1">
          <mxGeometry x="132" y="190" width="240" height="100" as="geometry" />
        </mxCell>
        <mxCell id="LpJt9IebrQdKaDS4yMnM-58" value="" style="rounded=0;whiteSpace=wrap;html=1;rotation=-90;" parent="LpJt9IebrQdKaDS4yMnM-154" vertex="1">
          <mxGeometry x="232" y="190" width="240" height="100" as="geometry" />
        </mxCell>
        <mxCell id="LpJt9IebrQdKaDS4yMnM-59" value="" style="rounded=0;whiteSpace=wrap;html=1;fillColor=#dae8fc;strokeColor=#6c8ebf;rotation=-90;" parent="LpJt9IebrQdKaDS4yMnM-154" vertex="1">
          <mxGeometry x="232" y="130" width="40" height="60" as="geometry" />
        </mxCell>
        <mxCell id="LpJt9IebrQdKaDS4yMnM-60" value="" style="rounded=0;whiteSpace=wrap;html=1;fillColor=#dae8fc;strokeColor=#6c8ebf;rotation=-90;" parent="LpJt9IebrQdKaDS4yMnM-154" vertex="1">
          <mxGeometry x="332" y="130" width="40" height="60" as="geometry" />
        </mxCell>
        <mxCell id="LpJt9IebrQdKaDS4yMnM-177" value="&lt;b&gt;&lt;font style=&quot;font-size: 18px&quot;&gt;B2 A&lt;/font&gt;&lt;/b&gt;" style="text;html=1;strokeColor=none;fillColor=none;align=center;verticalAlign=middle;whiteSpace=wrap;rounded=0;dashed=1;" parent="LpJt9IebrQdKaDS4yMnM-154" vertex="1">
          <mxGeometry x="30" y="260" width="60" height="20" as="geometry" />
        </mxCell>
        <mxCell id="LpJt9IebrQdKaDS4yMnM-151" value="" style="group;rotation=0;" parent="LpJt9IebrQdKaDS4yMnM-154" vertex="1" connectable="0">
          <mxGeometry x="2" y="380" width="100" height="100" as="geometry" />
        </mxCell>
        <mxCell id="LpJt9IebrQdKaDS4yMnM-152" value="" style="rounded=0;whiteSpace=wrap;html=1;rotation=0;" parent="LpJt9IebrQdKaDS4yMnM-151" vertex="1">
          <mxGeometry width="100" height="100" as="geometry" />
        </mxCell>
        <mxCell id="LpJt9IebrQdKaDS4yMnM-153" value="" style="curved=1;endArrow=classic;html=1;entryX=0;entryY=0;entryDx=0;entryDy=0;exitX=1;exitY=1;exitDx=0;exitDy=0;" parent="LpJt9IebrQdKaDS4yMnM-151" source="LpJt9IebrQdKaDS4yMnM-152" target="LpJt9IebrQdKaDS4yMnM-152" edge="1">
          <mxGeometry width="50" height="50" relative="1" as="geometry">
            <mxPoint x="40" y="80" as="sourcePoint" />
            <mxPoint x="90" y="30" as="targetPoint" />
            <Array as="points">
              <mxPoint x="90" y="50" />
              <mxPoint x="40" y="10" />
            </Array>
          </mxGeometry>
        </mxCell>
        <mxCell id="LpJt9IebrQdKaDS4yMnM-158" value="" style="group;rotation=0;" parent="1" vertex="1" connectable="0">
          <mxGeometry x="-720" y="640" width="400" height="480" as="geometry" />
        </mxCell>
        <mxCell id="LpJt9IebrQdKaDS4yMnM-63" value="" style="whiteSpace=wrap;html=1;fillColor=none;rotation=0;" parent="LpJt9IebrQdKaDS4yMnM-158" vertex="1">
          <mxGeometry y="80" width="400" height="400" as="geometry" />
        </mxCell>
        <mxCell id="LpJt9IebrQdKaDS4yMnM-65" value="" style="rounded=0;whiteSpace=wrap;html=1;fillColor=#e3c800;strokeColor=#B09500;fontColor=#ffffff;rotation=-90;" parent="LpJt9IebrQdKaDS4yMnM-158" vertex="1">
          <mxGeometry x="160" y="-160" width="80" height="400" as="geometry" />
        </mxCell>
        <mxCell id="LpJt9IebrQdKaDS4yMnM-67" value="" style="rounded=0;whiteSpace=wrap;html=1;fillColor=#a20025;strokeColor=#6F0000;fontColor=#ffffff;rotation=0;" parent="LpJt9IebrQdKaDS4yMnM-158" vertex="1">
          <mxGeometry x="120" y="410" width="280" height="70" as="geometry" />
        </mxCell>
        <mxCell id="LpJt9IebrQdKaDS4yMnM-73" value="" style="rounded=0;whiteSpace=wrap;html=1;fillColor=#a20025;strokeColor=#6F0000;fontColor=#ffffff;rotation=0;" parent="LpJt9IebrQdKaDS4yMnM-158" vertex="1">
          <mxGeometry y="80" width="80" height="110" as="geometry" />
        </mxCell>
        <mxCell id="LpJt9IebrQdKaDS4yMnM-74" value="" style="group;rotation=0;" parent="LpJt9IebrQdKaDS4yMnM-158" vertex="1" connectable="0">
          <mxGeometry x="200" y="120" width="200" height="240" as="geometry" />
        </mxCell>
        <mxCell id="LpJt9IebrQdKaDS4yMnM-75" value="" style="group;rotation=0;fillColor=none;" parent="LpJt9IebrQdKaDS4yMnM-74" vertex="1" connectable="0">
          <mxGeometry width="200" height="240" as="geometry" />
        </mxCell>
        <mxCell id="LpJt9IebrQdKaDS4yMnM-76" value="5*3" style="rounded=0;whiteSpace=wrap;html=1;direction=west;rotation=0;" parent="LpJt9IebrQdKaDS4yMnM-75" vertex="1">
          <mxGeometry width="200" height="120" as="geometry" />
        </mxCell>
        <mxCell id="LpJt9IebrQdKaDS4yMnM-77" value="" style="rounded=0;whiteSpace=wrap;html=1;direction=west;rotation=0;fillColor=none;dashed=1;strokeWidth=2;" parent="LpJt9IebrQdKaDS4yMnM-75" vertex="1">
          <mxGeometry y="120" width="200" height="120" as="geometry" />
        </mxCell>
        <mxCell id="LpJt9IebrQdKaDS4yMnM-169" value="" style="rounded=0;whiteSpace=wrap;html=1;fillColor=#dae8fc;strokeColor=#6c8ebf;rotation=-90;" parent="LpJt9IebrQdKaDS4yMnM-75" vertex="1">
          <mxGeometry x="30" width="40" height="60" as="geometry" />
        </mxCell>
        <mxCell id="LpJt9IebrQdKaDS4yMnM-170" value="" style="rounded=0;whiteSpace=wrap;html=1;fillColor=#dae8fc;strokeColor=#6c8ebf;rotation=-90;" parent="LpJt9IebrQdKaDS4yMnM-75" vertex="1">
          <mxGeometry x="130" width="40" height="60" as="geometry" />
        </mxCell>
        <mxCell id="LpJt9IebrQdKaDS4yMnM-155" value="" style="group;rotation=0;" parent="LpJt9IebrQdKaDS4yMnM-158" vertex="1" connectable="0">
          <mxGeometry y="380" width="100" height="100" as="geometry" />
        </mxCell>
        <mxCell id="LpJt9IebrQdKaDS4yMnM-156" value="" style="rounded=0;whiteSpace=wrap;html=1;rotation=0;" parent="LpJt9IebrQdKaDS4yMnM-155" vertex="1">
          <mxGeometry width="100" height="100" as="geometry" />
        </mxCell>
        <mxCell id="LpJt9IebrQdKaDS4yMnM-157" value="" style="curved=1;endArrow=classic;html=1;entryX=0;entryY=0;entryDx=0;entryDy=0;exitX=1;exitY=1;exitDx=0;exitDy=0;" parent="LpJt9IebrQdKaDS4yMnM-155" source="LpJt9IebrQdKaDS4yMnM-156" target="LpJt9IebrQdKaDS4yMnM-156" edge="1">
          <mxGeometry width="50" height="50" relative="1" as="geometry">
            <mxPoint x="40" y="80" as="sourcePoint" />
            <mxPoint x="90" y="30" as="targetPoint" />
            <Array as="points">
              <mxPoint x="90" y="50" />
              <mxPoint x="40" y="10" />
            </Array>
          </mxGeometry>
        </mxCell>
        <mxCell id="LpJt9IebrQdKaDS4yMnM-178" value="&lt;b&gt;&lt;font style=&quot;font-size: 18px&quot;&gt;B2 B&lt;/font&gt;&lt;/b&gt;" style="text;html=1;strokeColor=none;fillColor=none;align=center;verticalAlign=middle;whiteSpace=wrap;rounded=0;dashed=1;" parent="LpJt9IebrQdKaDS4yMnM-158" vertex="1">
          <mxGeometry x="20" y="260" width="60" height="20" as="geometry" />
        </mxCell>
        <mxCell id="LpJt9IebrQdKaDS4yMnM-162" value="" style="group" parent="1" vertex="1" connectable="0">
          <mxGeometry x="-639" y="1493" width="100" height="100" as="geometry" />
        </mxCell>
        <mxCell id="LpJt9IebrQdKaDS4yMnM-163" value="" style="rounded=0;whiteSpace=wrap;html=1;" parent="LpJt9IebrQdKaDS4yMnM-162" vertex="1">
          <mxGeometry width="100" height="100" as="geometry" />
        </mxCell>
        <mxCell id="LpJt9IebrQdKaDS4yMnM-164" value="" style="curved=1;endArrow=classic;html=1;entryX=0;entryY=0;entryDx=0;entryDy=0;exitX=1;exitY=1;exitDx=0;exitDy=0;" parent="LpJt9IebrQdKaDS4yMnM-162" source="LpJt9IebrQdKaDS4yMnM-163" target="LpJt9IebrQdKaDS4yMnM-163" edge="1">
          <mxGeometry width="50" height="50" relative="1" as="geometry">
            <mxPoint x="40" y="80" as="sourcePoint" />
            <mxPoint x="90" y="30" as="targetPoint" />
            <Array as="points">
              <mxPoint x="90" y="50" />
              <mxPoint x="40" y="10" />
            </Array>
          </mxGeometry>
        </mxCell>
        <mxCell id="LpJt9IebrQdKaDS4yMnM-165" value="" style="group" parent="1" vertex="1" connectable="0">
          <mxGeometry x="-640" y="1939" width="100" height="100" as="geometry" />
        </mxCell>
        <mxCell id="LpJt9IebrQdKaDS4yMnM-166" value="" style="rounded=0;whiteSpace=wrap;html=1;" parent="LpJt9IebrQdKaDS4yMnM-165" vertex="1">
          <mxGeometry width="100" height="100" as="geometry" />
        </mxCell>
        <mxCell id="LpJt9IebrQdKaDS4yMnM-167" value="" style="curved=1;endArrow=classic;html=1;entryX=0;entryY=0;entryDx=0;entryDy=0;exitX=1;exitY=1;exitDx=0;exitDy=0;" parent="LpJt9IebrQdKaDS4yMnM-165" source="LpJt9IebrQdKaDS4yMnM-166" target="LpJt9IebrQdKaDS4yMnM-166" edge="1">
          <mxGeometry width="50" height="50" relative="1" as="geometry">
            <mxPoint x="40" y="80" as="sourcePoint" />
            <mxPoint x="90" y="30" as="targetPoint" />
            <Array as="points">
              <mxPoint x="90" y="50" />
              <mxPoint x="40" y="10" />
            </Array>
          </mxGeometry>
        </mxCell>
        <mxCell id="LpJt9IebrQdKaDS4yMnM-173" value="&lt;b&gt;&lt;font style=&quot;font-size: 18px&quot;&gt;B1 A&lt;/font&gt;&lt;/b&gt;" style="text;html=1;strokeColor=none;fillColor=none;align=center;verticalAlign=middle;whiteSpace=wrap;rounded=0;dashed=1;" parent="1" vertex="1">
          <mxGeometry x="-540" y="-930" width="60" height="20" as="geometry" />
        </mxCell>
        <mxCell id="LpJt9IebrQdKaDS4yMnM-175" value="&lt;b&gt;&lt;font style=&quot;font-size: 18px&quot;&gt;B1 B&lt;/font&gt;&lt;/b&gt;" style="text;html=1;strokeColor=none;fillColor=none;align=center;verticalAlign=middle;whiteSpace=wrap;rounded=0;dashed=1;" parent="1" vertex="1">
          <mxGeometry x="-540" y="-505" width="60" height="20" as="geometry" />
        </mxCell>
        <mxCell id="LpJt9IebrQdKaDS4yMnM-176" value="&lt;b&gt;&lt;font style=&quot;font-size: 18px&quot;&gt;B1 C&lt;/font&gt;&lt;/b&gt;" style="text;html=1;strokeColor=none;fillColor=none;align=center;verticalAlign=middle;whiteSpace=wrap;rounded=0;dashed=1;" parent="1" vertex="1">
          <mxGeometry x="-550" y="-140" width="60" height="20" as="geometry" />
        </mxCell>
        <mxCell id="LpJt9IebrQdKaDS4yMnM-179" value="&lt;b&gt;&lt;font style=&quot;font-size: 18px&quot;&gt;B3 A&lt;/font&gt;&lt;/b&gt;" style="text;html=1;strokeColor=none;fillColor=none;align=center;verticalAlign=middle;whiteSpace=wrap;rounded=0;dashed=1;" parent="1" vertex="1">
          <mxGeometry x="-630" y="1386.5" width="60" height="20" as="geometry" />
        </mxCell>
        <mxCell id="LpJt9IebrQdKaDS4yMnM-180" value="&lt;b&gt;&lt;font style=&quot;font-size: 18px&quot;&gt;B3 B&lt;/font&gt;&lt;/b&gt;" style="text;html=1;strokeColor=none;fillColor=none;align=center;verticalAlign=middle;whiteSpace=wrap;rounded=0;dashed=1;" parent="1" vertex="1">
          <mxGeometry x="-630" y="1842" width="60" height="20" as="geometry" />
        </mxCell>
        <mxCell id="iaUl5woXVu4vy6YyLLjF-63" value="" style="group" parent="1" vertex="1" connectable="0">
          <mxGeometry x="-640" y="2320" width="401" height="360" as="geometry" />
        </mxCell>
        <mxCell id="iaUl5woXVu4vy6YyLLjF-14" value="" style="group" parent="iaUl5woXVu4vy6YyLLjF-63" vertex="1" connectable="0">
          <mxGeometry width="401" height="360" as="geometry" />
        </mxCell>
        <mxCell id="iaUl5woXVu4vy6YyLLjF-10" value="" style="rounded=0;whiteSpace=wrap;html=1;" parent="iaUl5woXVu4vy6YyLLjF-14" vertex="1">
          <mxGeometry width="400" height="360" as="geometry" />
        </mxCell>
        <mxCell id="iaUl5woXVu4vy6YyLLjF-11" value="" style="endArrow=none;html=1;entryX=0.333;entryY=-0.003;entryDx=0;entryDy=0;entryPerimeter=0;exitX=0.328;exitY=0.997;exitDx=0;exitDy=0;exitPerimeter=0;" parent="iaUl5woXVu4vy6YyLLjF-14" source="iaUl5woXVu4vy6YyLLjF-10" target="iaUl5woXVu4vy6YyLLjF-10" edge="1">
          <mxGeometry width="50" height="50" relative="1" as="geometry">
            <mxPoint x="320" y="370" as="sourcePoint" />
            <mxPoint x="370" y="320" as="targetPoint" />
          </mxGeometry>
        </mxCell>
        <mxCell id="iaUl5woXVu4vy6YyLLjF-12" value="" style="endArrow=none;html=1;entryX=0.333;entryY=-0.003;entryDx=0;entryDy=0;entryPerimeter=0;exitX=0.328;exitY=0.997;exitDx=0;exitDy=0;exitPerimeter=0;" parent="iaUl5woXVu4vy6YyLLjF-14" edge="1">
          <mxGeometry width="50" height="50" relative="1" as="geometry">
            <mxPoint x="269.00000000000006" y="360" as="sourcePoint" />
            <mxPoint x="271.00000000000006" as="targetPoint" />
          </mxGeometry>
        </mxCell>
        <mxCell id="iaUl5woXVu4vy6YyLLjF-26" value="" style="endArrow=none;html=1;rounded=1;" parent="iaUl5woXVu4vy6YyLLjF-14" edge="1">
          <mxGeometry width="50" height="50" relative="1" as="geometry">
            <mxPoint x="200" y="360" as="sourcePoint" />
            <mxPoint x="199.5" y="270" as="targetPoint" />
          </mxGeometry>
        </mxCell>
        <mxCell id="iaUl5woXVu4vy6YyLLjF-28" value="" style="pointerEvents=1;shadow=0;dashed=0;html=1;strokeColor=none;fillColor=#505050;labelPosition=center;verticalLabelPosition=bottom;verticalAlign=top;outlineConnect=0;align=center;shape=mxgraph.office.devices.tv;" parent="iaUl5woXVu4vy6YyLLjF-14" vertex="1">
          <mxGeometry x="154.61" y="135" width="91.78" height="70" as="geometry" />
        </mxCell>
        <mxCell id="iaUl5woXVu4vy6YyLLjF-29" value="" style="group" parent="iaUl5woXVu4vy6YyLLjF-14" vertex="1" connectable="0">
          <mxGeometry y="50" width="401" height="10" as="geometry" />
        </mxCell>
        <mxCell id="iaUl5woXVu4vy6YyLLjF-13" value="" style="endArrow=none;html=1;rounded=1;" parent="iaUl5woXVu4vy6YyLLjF-29" edge="1">
          <mxGeometry width="50" height="50" relative="1" as="geometry">
            <mxPoint x="401" y="10" as="sourcePoint" />
            <mxPoint y="10" as="targetPoint" />
          </mxGeometry>
        </mxCell>
        <mxCell id="iaUl5woXVu4vy6YyLLjF-18" value="" style="rounded=1;whiteSpace=wrap;html=1;fillColor=#333333;" parent="iaUl5woXVu4vy6YyLLjF-29" vertex="1">
          <mxGeometry x="180" width="40" height="5" as="geometry" />
        </mxCell>
        <mxCell id="iaUl5woXVu4vy6YyLLjF-69" value="" style="rounded=1;whiteSpace=wrap;html=1;fillColor=#333333;arcSize=50;rotation=90;" parent="iaUl5woXVu4vy6YyLLjF-14" vertex="1">
          <mxGeometry x="136.11" y="80" width="30" height="5" as="geometry" />
        </mxCell>
        <mxCell id="iaUl5woXVu4vy6YyLLjF-70" value="" style="rounded=1;whiteSpace=wrap;html=1;fillColor=#333333;arcSize=50;rotation=90;" parent="iaUl5woXVu4vy6YyLLjF-14" vertex="1">
          <mxGeometry x="129.11" y="80" width="30" height="5" as="geometry" />
        </mxCell>
        <mxCell id="iaUl5woXVu4vy6YyLLjF-71" value="" style="rounded=1;whiteSpace=wrap;html=1;fillColor=#333333;arcSize=50;rotation=90;" parent="iaUl5woXVu4vy6YyLLjF-14" vertex="1">
          <mxGeometry x="122.11000000000001" y="80" width="30" height="5" as="geometry" />
        </mxCell>
        <mxCell id="iaUl5woXVu4vy6YyLLjF-72" value="" style="rounded=1;whiteSpace=wrap;html=1;fillColor=#333333;arcSize=50;rotation=80;" parent="iaUl5woXVu4vy6YyLLjF-14" vertex="1">
          <mxGeometry x="145.11" y="80" width="30" height="5" as="geometry" />
        </mxCell>
        <mxCell id="iaUl5woXVu4vy6YyLLjF-15" value="" style="endArrow=none;html=1;rounded=1;" parent="iaUl5woXVu4vy6YyLLjF-63" edge="1">
          <mxGeometry width="50" height="50" as="geometry">
            <mxPoint x="270.5" y="240" as="sourcePoint" />
            <mxPoint x="131.5" y="240" as="targetPoint" />
          </mxGeometry>
        </mxCell>
        <mxCell id="iaUl5woXVu4vy6YyLLjF-16" value="" style="endArrow=none;html=1;rounded=1;" parent="iaUl5woXVu4vy6YyLLjF-63" edge="1">
          <mxGeometry width="50" height="50" as="geometry">
            <mxPoint x="270.5" y="270" as="sourcePoint" />
            <mxPoint x="131.5" y="270" as="targetPoint" />
          </mxGeometry>
        </mxCell>
        <mxCell id="iaUl5woXVu4vy6YyLLjF-19" value="" style="rounded=1;whiteSpace=wrap;html=1;fillColor=#333333;" parent="iaUl5woXVu4vy6YyLLjF-63" vertex="1">
          <mxGeometry x="320" y="50" width="40" height="5" as="geometry" />
        </mxCell>
        <mxCell id="iaUl5woXVu4vy6YyLLjF-20" value="" style="rounded=1;whiteSpace=wrap;html=1;fillColor=#333333;" parent="iaUl5woXVu4vy6YyLLjF-63" vertex="1">
          <mxGeometry x="48" y="50" width="40" height="5" as="geometry" />
        </mxCell>
        <mxCell id="iaUl5woXVu4vy6YyLLjF-21" value="" style="rounded=1;whiteSpace=wrap;html=1;fillColor=#333333;direction=south;" parent="iaUl5woXVu4vy6YyLLjF-63" vertex="1">
          <mxGeometry x="15.5" y="172.5" width="5" height="40" as="geometry" />
        </mxCell>
        <mxCell id="iaUl5woXVu4vy6YyLLjF-22" value="" style="rounded=1;whiteSpace=wrap;html=1;fillColor=#333333;direction=south;" parent="iaUl5woXVu4vy6YyLLjF-63" vertex="1">
          <mxGeometry x="375.5" y="172.5" width="5" height="40" as="geometry" />
        </mxCell>
        <mxCell id="iaUl5woXVu4vy6YyLLjF-23" value="" style="rounded=1;whiteSpace=wrap;html=1;fillColor=#333333;" parent="iaUl5woXVu4vy6YyLLjF-63" vertex="1">
          <mxGeometry x="180" y="252" width="40" height="5" as="geometry" />
        </mxCell>
        <mxCell id="iaUl5woXVu4vy6YyLLjF-24" value="" style="rounded=1;whiteSpace=wrap;html=1;fillColor=#333333;direction=south;" parent="iaUl5woXVu4vy6YyLLjF-63" vertex="1">
          <mxGeometry x="185.5" y="292.5" width="5" height="40" as="geometry" />
        </mxCell>
        <mxCell id="iaUl5woXVu4vy6YyLLjF-25" value="" style="rounded=1;whiteSpace=wrap;html=1;fillColor=#333333;direction=south;" parent="iaUl5woXVu4vy6YyLLjF-63" vertex="1">
          <mxGeometry x="205.5" y="292.5" width="5" height="40" as="geometry" />
        </mxCell>
        <mxCell id="iaUl5woXVu4vy6YyLLjF-60" value="" style="endArrow=none;html=1;rounded=1;" parent="iaUl5woXVu4vy6YyLLjF-63" edge="1">
          <mxGeometry y="-30" width="50" height="50" as="geometry">
            <mxPoint x="270.5" y="240" as="sourcePoint" />
            <mxPoint x="131.5" y="240" as="targetPoint" />
          </mxGeometry>
        </mxCell>
        <mxCell id="iaUl5woXVu4vy6YyLLjF-62" value="" style="endArrow=none;html=1;rounded=1;strokeWidth=4;" parent="iaUl5woXVu4vy6YyLLjF-63" edge="1">
          <mxGeometry y="-170" width="50" height="50" as="geometry">
            <mxPoint x="270.5" y="100" as="sourcePoint" />
            <mxPoint x="131.5" y="100" as="targetPoint" />
          </mxGeometry>
        </mxCell>
        <mxCell id="hL6NmupwTg1U5qydUNrK-42" value="" style="group;aspect=fixed;fillColor=#ffffff;" parent="1" vertex="1" connectable="0">
          <mxGeometry x="-640" y="2820" width="913.54" height="1180" as="geometry" />
        </mxCell>
        <mxCell id="hL6NmupwTg1U5qydUNrK-1" value="" style="whiteSpace=wrap;html=1;" parent="hL6NmupwTg1U5qydUNrK-42" vertex="1">
          <mxGeometry y="114.19354838709678" width="913.5300000000001" height="1065.8064516129032" as="geometry" />
        </mxCell>
        <mxCell id="hL6NmupwTg1U5qydUNrK-11" value="" style="triangle;whiteSpace=wrap;html=1;aspect=fixed;" parent="hL6NmupwTg1U5qydUNrK-42" vertex="1">
          <mxGeometry x="-0.19362499999999994" y="337.18741935483877" width="152.2548924731183" height="202.993835389785" as="geometry" />
        </mxCell>
        <mxCell id="nDecERiu8yvyTZUjvtcF-1" value="" style="rounded=0;whiteSpace=wrap;html=1;fillColor=#994C00;" vertex="1" parent="hL6NmupwTg1U5qydUNrK-42">
          <mxGeometry y="310" width="685.15" height="470" as="geometry" />
        </mxCell>
        <mxCell id="hL6NmupwTg1U5qydUNrK-16" value="" style="rounded=0;whiteSpace=wrap;html=1;" parent="hL6NmupwTg1U5qydUNrK-42" vertex="1">
          <mxGeometry x="760" y="320" width="143.53" height="17.42" as="geometry" />
        </mxCell>
        <mxCell id="hL6NmupwTg1U5qydUNrK-17" value="" style="rounded=0;whiteSpace=wrap;html=1;" parent="hL6NmupwTg1U5qydUNrK-42" vertex="1">
          <mxGeometry x="780" y="510" width="133.54" height="20" as="geometry" />
        </mxCell>
        <mxCell id="hL6NmupwTg1U5qydUNrK-18" value="" style="rounded=0;whiteSpace=wrap;html=1;" parent="hL6NmupwTg1U5qydUNrK-42" vertex="1">
          <mxGeometry x="685.15" y="260" width="152.26" height="6.45" as="geometry" />
        </mxCell>
        <mxCell id="hL6NmupwTg1U5qydUNrK-19" value="" style="rounded=0;whiteSpace=wrap;html=1;" parent="hL6NmupwTg1U5qydUNrK-42" vertex="1">
          <mxGeometry x="685.15" y="418.71" width="152.26" height="11.29" as="geometry" />
        </mxCell>
        <mxCell id="hL6NmupwTg1U5qydUNrK-20" value="" style="rounded=0;whiteSpace=wrap;html=1;" parent="hL6NmupwTg1U5qydUNrK-42" vertex="1">
          <mxGeometry x="685.16" y="610" width="152.26" height="20" as="geometry" />
        </mxCell>
        <mxCell id="hL6NmupwTg1U5qydUNrK-4" value="" style="rounded=0;whiteSpace=wrap;html=1;rotation=90;" parent="hL6NmupwTg1U5qydUNrK-42" vertex="1">
          <mxGeometry x="342.57375" y="570.9677419354839" width="228.38250000000002" height="913.5483870967743" as="geometry" />
        </mxCell>
        <mxCell id="hL6NmupwTg1U5qydUNrK-21" value="" style="rounded=0;whiteSpace=wrap;html=1;" parent="hL6NmupwTg1U5qydUNrK-42" vertex="1">
          <mxGeometry x="3.806375" y="913.5483870967743" width="300.70362500000005" height="228.38709677419357" as="geometry" />
        </mxCell>
        <mxCell id="hL6NmupwTg1U5qydUNrK-37" value="" style="rounded=0;whiteSpace=wrap;html=1;" parent="hL6NmupwTg1U5qydUNrK-42" vertex="1">
          <mxGeometry x="3.806375" y="913.5483870967743" width="909.723625" height="12.675483870967742" as="geometry" />
        </mxCell>
        <mxCell id="hL6NmupwTg1U5qydUNrK-22" value="" style="rounded=0;whiteSpace=wrap;html=1;fillColor=none;" parent="hL6NmupwTg1U5qydUNrK-42" vertex="1">
          <mxGeometry x="304.51000000000005" y="913.5483870967743" width="300.70362500000005" height="228.38709677419357" as="geometry" />
        </mxCell>
        <mxCell id="hL6NmupwTg1U5qydUNrK-5" value="" style="rounded=1;whiteSpace=wrap;html=1;arcSize=2;" parent="hL6NmupwTg1U5qydUNrK-42" vertex="1">
          <mxGeometry x="30.003750000000004" y="392.7441935483871" width="609.0200000000001" height="304.51612903225805" as="geometry" />
        </mxCell>
        <mxCell id="hL6NmupwTg1U5qydUNrK-38" value="Brown Panel" style="text;html=1;strokeColor=none;fillColor=none;align=center;verticalAlign=middle;whiteSpace=wrap;rounded=0;" parent="hL6NmupwTg1U5qydUNrK-42" vertex="1">
          <mxGeometry x="304.51000000000005" width="152.25500000000002" height="76.12903225806451" as="geometry" />
        </mxCell>
        <mxCell id="hL6NmupwTg1U5qydUNrK-39" value="Tint Mirror" style="text;html=1;strokeColor=none;fillColor=none;align=center;verticalAlign=middle;whiteSpace=wrap;rounded=0;" parent="hL6NmupwTg1U5qydUNrK-42" vertex="1">
          <mxGeometry width="152.25500000000002" height="76.12903225806451" as="geometry" />
        </mxCell>
        <mxCell id="hL6NmupwTg1U5qydUNrK-40" value="Grey Shelves" style="text;html=1;strokeColor=none;fillColor=none;align=center;verticalAlign=middle;whiteSpace=wrap;rounded=0;" parent="hL6NmupwTg1U5qydUNrK-42" vertex="1">
          <mxGeometry x="730.824" width="152.25500000000002" height="76.12903225806451" as="geometry" />
        </mxCell>
        <mxCell id="hL6NmupwTg1U5qydUNrK-41" value="Grey Drawers" style="text;html=1;strokeColor=none;fillColor=none;align=center;verticalAlign=middle;whiteSpace=wrap;rounded=0;" parent="hL6NmupwTg1U5qydUNrK-42" vertex="1">
          <mxGeometry x="384.443875" y="989.6774193548388" width="152.25500000000002" height="76.12903225806451" as="geometry" />
        </mxCell>
        <mxCell id="iaUl5woXVu4vy6YyLLjF-65" value="" style="rounded=1;whiteSpace=wrap;html=1;fillColor=#333333;arcSize=50;rotation=90;" parent="1" vertex="1">
          <mxGeometry x="-390" y="2400" width="30" height="5" as="geometry" />
        </mxCell>
        <mxCell id="iaUl5woXVu4vy6YyLLjF-66" value="" style="rounded=1;whiteSpace=wrap;html=1;fillColor=#333333;arcSize=50;rotation=90;" parent="1" vertex="1">
          <mxGeometry x="-397" y="2400" width="30" height="5" as="geometry" />
        </mxCell>
        <mxCell id="iaUl5woXVu4vy6YyLLjF-67" value="" style="rounded=1;whiteSpace=wrap;html=1;fillColor=#333333;arcSize=50;rotation=90;" parent="1" vertex="1">
          <mxGeometry x="-404" y="2400" width="30" height="5" as="geometry" />
        </mxCell>
        <mxCell id="iaUl5woXVu4vy6YyLLjF-68" value="" style="rounded=1;whiteSpace=wrap;html=1;fillColor=#333333;arcSize=50;rotation=105;" parent="1" vertex="1">
          <mxGeometry x="-414" y="2400" width="30" height="5" as="geometry" />
        </mxCell>
        <mxCell id="nDecERiu8yvyTZUjvtcF-2" value="" style="rounded=0;whiteSpace=wrap;html=1;" vertex="1" parent="1">
          <mxGeometry x="-640" y="4030" width="920" height="770" as="geometry" />
        </mxCell>
        <mxCell id="nDecERiu8yvyTZUjvtcF-7" value="" style="rounded=0;whiteSpace=wrap;html=1;fillColor=#f5f5f5;strokeColor=#666666;fontColor=#333333;" vertex="1" parent="1">
          <mxGeometry x="-640" y="4280" width="600" height="420" as="geometry" />
        </mxCell>
        <mxCell id="nDecERiu8yvyTZUjvtcF-3" value="" style="rounded=0;whiteSpace=wrap;html=1;fillColor=#994C00;" vertex="1" parent="1">
          <mxGeometry x="-40" y="4030" width="40" height="770" as="geometry" />
        </mxCell>
        <mxCell id="nDecERiu8yvyTZUjvtcF-4" value="" style="rounded=0;whiteSpace=wrap;html=1;fillColor=#994C00;" vertex="1" parent="1">
          <mxGeometry x="30" y="4030" width="40" height="770" as="geometry" />
        </mxCell>
        <mxCell id="nDecERiu8yvyTZUjvtcF-5" value="" style="rounded=0;whiteSpace=wrap;html=1;fillColor=#994C00;" vertex="1" parent="1">
          <mxGeometry x="100" y="4030" width="40" height="770" as="geometry" />
        </mxCell>
        <mxCell id="nDecERiu8yvyTZUjvtcF-8" value="" style="rounded=0;whiteSpace=wrap;html=1;fillColor=#000000;" vertex="1" parent="1">
          <mxGeometry x="-600" y="4360" width="510" height="260" as="geometry" />
        </mxCell>
        <mxCell id="nDecERiu8yvyTZUjvtcF-9" value="" style="rounded=0;whiteSpace=wrap;html=1;aspect=fixed;" vertex="1" parent="1">
          <mxGeometry x="-640" y="4780" width="920" height="200" as="geometry" />
        </mxCell>
        <mxCell id="nDecERiu8yvyTZUjvtcF-10" value="" style="rounded=0;whiteSpace=wrap;html=1;fillColor=#f5f5f5;strokeColor=#666666;fontColor=#333333;" vertex="1" parent="1">
          <mxGeometry x="-350" y="4220" width="570" height="20" as="geometry" />
        </mxCell>
        <mxCell id="nDecERiu8yvyTZUjvtcF-11" value="" style="rounded=0;whiteSpace=wrap;html=1;" vertex="1" parent="1">
          <mxGeometry x="150" y="4330" width="130" height="20" as="geometry" />
        </mxCell>
        <mxCell id="nDecERiu8yvyTZUjvtcF-15" value="" style="shape=image;html=1;verticalAlign=top;verticalLabelPosition=bottom;labelBackgroundColor=#ffffff;imageAspect=0;image=https://cdn2.iconfinder.com/data/icons/spring-glyph-6/272/spring-plant-flower-leaves-garden-nature-pot-128.png;fillColor=#000000;" vertex="1" parent="1">
          <mxGeometry x="150" y="4429" width="130" height="360" as="geometry" />
        </mxCell>
        <mxCell id="nDecERiu8yvyTZUjvtcF-16" value="" style="rounded=0;whiteSpace=wrap;html=1;fillColor=#994C00;strokeColor=none;" vertex="1" parent="1">
          <mxGeometry x="-640" y="4750" width="560" height="30" as="geometry" />
        </mxCell>
        <mxCell id="nDecERiu8yvyTZUjvtcF-17" value="" style="triangle;whiteSpace=wrap;html=1;rotation=90;aspect=fixed;fillColor=#994C00;strokeColor=none;" vertex="1" parent="1">
          <mxGeometry x="-93" y="4742" width="30" height="45" as="geometry" />
        </mxCell>
        <mxCell id="nDecERiu8yvyTZUjvtcF-20" value="" style="rounded=0;whiteSpace=wrap;html=1;fillColor=#994C00;strokeColor=none;" vertex="1" parent="1">
          <mxGeometry x="-640" y="4950" width="180" height="30" as="geometry" />
        </mxCell>
        <mxCell id="nDecERiu8yvyTZUjvtcF-21" value="" style="rounded=0;whiteSpace=wrap;html=1;fillColor=#994C00;strokeColor=none;" vertex="1" parent="1">
          <mxGeometry x="-640" y="4780" width="30" height="170" as="geometry" />
        </mxCell>
        <mxCell id="nDecERiu8yvyTZUjvtcF-22" value="" style="whiteSpace=wrap;html=1;strokeColor=#666666;fontColor=#333333;fillColor=#f5f5f5;" vertex="1" parent="1">
          <mxGeometry x="-528" y="4780" width="808" height="170" as="geometry" />
        </mxCell>
        <mxCell id="nDecERiu8yvyTZUjvtcF-23" value="" style="rounded=0;whiteSpace=wrap;html=1;fillColor=#f5f5f5;strokeColor=#666666;fontColor=#333333;" vertex="1" parent="1">
          <mxGeometry x="-528" y="4800" width="269" height="150" as="geometry" />
        </mxCell>
        <mxCell id="nDecERiu8yvyTZUjvtcF-24" value="" style="rounded=0;whiteSpace=wrap;html=1;fillColor=#f5f5f5;strokeColor=#666666;fontColor=#333333;" vertex="1" parent="1">
          <mxGeometry x="-259" y="4800" width="269" height="150" as="geometry" />
        </mxCell>
        <mxCell id="nDecERiu8yvyTZUjvtcF-25" value="" style="rounded=0;whiteSpace=wrap;html=1;fillColor=#f5f5f5;strokeColor=#666666;fontColor=#333333;" vertex="1" parent="1">
          <mxGeometry x="10" y="4800" width="269" height="150" as="geometry" />
        </mxCell>
        <mxCell id="nDecERiu8yvyTZUjvtcF-26" value="" style="rounded=0;whiteSpace=wrap;html=1;fillColor=#994C00;" vertex="1" parent="1">
          <mxGeometry x="-700" y="4160" width="40" height="820" as="geometry" />
        </mxCell>
        <mxCell id="nDecERiu8yvyTZUjvtcF-27" value="" style="rounded=0;whiteSpace=wrap;html=1;fillColor=#994C00;" vertex="1" parent="1">
          <mxGeometry x="-960" y="4160" width="300" height="30" as="geometry" />
        </mxCell>
        <mxCell id="nDecERiu8yvyTZUjvtcF-28" value="" style="rounded=0;whiteSpace=wrap;html=1;fillColor=#994C00;" vertex="1" parent="1">
          <mxGeometry x="-960" y="4160" width="40" height="820" as="geometry" />
        </mxCell>
      </root>
    </mxGraphModel>
  </diagram>
</mxfile>
